<?xml version="1.0" encoding="UTF-8"?>
<svg version="1.1" xmlns="http://www.w3.org/2000/svg" width="564" height="81">
<path d="M0 0 C186.12 0 372.24 0 564 0 C564 26.73 564 53.46 564 81 C377.88 81 191.76 81 0 81 C0 54.27 0 27.54 0 0 Z " fill="#FCFCFC" transform="translate(0,0)"/>
<path d="M0 0 C35.83522727 0 35.83522727 0 42.5234375 6.3828125 C47.16704613 11.46866958 47.54170114 16.37123675 47.34375 23.02734375 C46.74796837 28.17950078 45.19063358 32.01267348 41.31640625 35.52734375 C38.36474352 37.71728707 35.28668346 39.36940394 32 41 C32.40839111 41.42821045 32.81678223 41.8564209 33.23754883 42.29760742 C35.1006239 44.25644185 36.95658781 46.22187871 38.8125 48.1875 C39.77639648 49.19780273 39.77639648 49.19780273 40.75976562 50.22851562 C43.96476488 53.63278944 46.81637843 56.81946056 49 61 C34.1580009 63.07787987 34.1580009 63.07787987 29.03417969 59.70654297 C25.59867147 56.49111307 22.84364583 52.7798501 20.27001953 48.8527832 C18.64078193 46.47595041 16.80013542 44.25016927 15 42 C14.67 48.6 14.34 55.2 14 62 C9.38 62 4.76 62 0 62 C0 41.54 0 21.08 0 0 Z " fill="#161616" transform="translate(500,12)"/>
<path d="M0 0 C16 0 16 0 19.546875 3.26953125 C20.7097168 5.43798828 20.7097168 5.43798828 21.75 7.8125 C22.60208287 9.45358537 23.45768473 11.09284738 24.31640625 12.73046875 C24.95666748 14.01896729 24.95666748 14.01896729 25.60986328 15.33349609 C28.01325143 19.94357782 30.87012778 24.26058002 33.6875 28.625 C35.440625 31.38875 37.19375 34.1525 39 37 C39.33 24.79 39.66 12.58 40 0 C44.29 0 48.58 0 53 0 C53 20.13 53 40.26 53 61 C48.05 61 43.1 61 38 61 C34.63221382 57.51805158 33.19264437 55.19154214 31 51 C29.51056984 48.57862115 27.97931552 46.18676696 26.4440918 43.79418945 C24.41787667 40.63465215 22.43110464 37.45119041 20.44458008 34.26660156 C18.6712413 31.48416498 16.83023191 28.74534786 15 26 C14.67 37.88 14.34 49.76 14 62 C9.38 62 4.76 62 0 62 C0 41.54 0 21.08 0 0 Z " fill="#161616" transform="translate(324,12)"/>
<path d="M0 0 C16 0 16 0 20.0546875 4.03125 C21.05545535 5.8215809 21.99386864 7.64785839 22.875 9.5 C23.91701639 11.42108979 24.95999697 13.34165689 26.00390625 15.26171875 C26.50035645 16.22513184 26.99680664 17.18854492 27.50830078 18.18115234 C29.72387525 22.36789913 32.25822741 26.32722184 34.8125 30.3125 C36.194375 32.519375 37.57625 34.72625 39 37 C39.33 24.79 39.66 12.58 40 0 C44.29 0 48.58 0 53 0 C53 20.13 53 40.26 53 61 C48.05 61 43.1 61 38 61 C34.67513862 57.44799463 33.11742807 55.18405413 31 51 C29.70580812 48.92631403 28.3953286 46.86272093 27.0703125 44.80859375 C25.75241781 42.68662641 24.43733416 40.56291075 23.125 38.4375 C21.79543497 36.28964352 20.46476836 34.14246841 19.1328125 31.99609375 C18.55418457 31.05950928 17.97555664 30.1229248 17.37939453 29.15795898 C16.17488983 27.1032388 16.17488983 27.1032388 15 26 C14.67 37.88 14.34 49.76 14 62 C9.38 62 4.76 62 0 62 C0 41.54 0 21.08 0 0 Z " fill="#171717" transform="translate(202,12)"/>
<path d="M0 0 C1.58206057 0.00667536 3.16410534 0.0186375 4.74609375 0.03515625 C5.55240234 0.03966797 6.35871094 0.04417969 7.18945312 0.04882812 C9.18753131 0.06065107 11.18557158 0.07858711 13.18359375 0.09765625 C15.21039063 5.76766879 17.23673483 11.43784285 19.26269531 17.1081543 C19.94910036 19.02909504 20.63562 20.94999485 21.32226562 22.87084961 C22.97797913 27.50273234 24.63198595 32.13520731 26.28222656 36.76904297 C27.5176772 40.23740907 28.7622304 43.70227787 30.01464844 47.16455078 C30.56842054 48.70603272 31.12213486 50.24753541 31.67578125 51.7890625 C31.93158966 52.48966293 32.18739807 53.19026337 32.45095825 53.91209412 C33.47892092 56.78729746 34.18359375 59.01757326 34.18359375 62.09765625 C29.23359375 62.09765625 24.28359375 62.09765625 19.18359375 62.09765625 C18.19359375 58.46765625 17.20359375 54.83765625 16.18359375 51.09765625 C7.93359375 51.09765625 -0.31640625 51.09765625 -8.81640625 51.09765625 C-9.47640625 54.39765625 -10.13640625 57.69765625 -10.81640625 61.09765625 C-11.81640625 62.09765625 -11.81640625 62.09765625 -14.9765625 62.1953125 C-16.26433594 62.18371094 -17.55210938 62.17210937 -18.87890625 62.16015625 C-20.16925781 62.15113281 -21.45960937 62.14210937 -22.7890625 62.1328125 C-23.78808594 62.12121094 -24.78710938 62.10960937 -25.81640625 62.09765625 C-23.81258992 54.27867383 -21.37340429 46.70633362 -18.62109375 39.12109375 C-18.03172531 37.48329453 -18.03172531 37.48329453 -17.43045044 35.81240845 C-16.60720649 33.52768489 -15.78189417 31.24370564 -14.95458984 28.96044922 C-13.68303086 25.44953086 -12.41918771 21.93590261 -11.15625 18.421875 C-10.35331546 16.19645186 -9.54994594 13.97118559 -8.74609375 11.74609375 C-8.36693817 10.69207367 -7.98778259 9.63805359 -7.59713745 8.55209351 C-7.24652252 7.58663605 -6.89590759 6.62117859 -6.53466797 5.62646484 C-6.22616913 4.77361908 -5.91767029 3.92077332 -5.599823 3.04208374 C-4.21577458 -0.39310168 -4.12635244 0.10558732 0 0 Z " fill="#171717" transform="translate(39.81640625,11.90234375)"/>
<path d="M0 0 C5.94 0 11.88 0 18 0 C20.74136283 7.78733133 23.48009712 15.57557161 26.21417999 23.36546135 C27.48374589 26.98234278 28.754472 30.59880788 30.02783203 34.21435547 C31.2560022 37.70172716 32.48114757 41.19014767 33.70417786 44.6793251 C34.1719797 46.01219841 34.64088145 47.3446862 35.11088562 48.67678452 C35.76756495 50.53855315 36.42001938 52.40181038 37.07226562 54.26513672 C37.44532837 55.32658905 37.81839111 56.38804138 38.20275879 57.48165894 C39 60 39 60 39 62 C34.05 62 29.1 62 24 62 C23.01 58.37 22.02 54.74 21 51 C12.75 51 4.5 51 -4 51 C-4.99 54.63 -5.98 58.26 -7 62 C-11.62 62 -16.24 62 -21 62 C-19.60423536 55.01938277 -17.56347817 48.49024676 -15.15625 41.796875 C-14.78649048 40.75605774 -14.41673096 39.71524048 -14.0357666 38.6428833 C-12.8621314 35.34346619 -11.68106684 32.04676313 -10.5 28.75 C-9.70656628 26.52099879 -8.91359306 24.2918336 -8.12109375 22.0625 C-6.66867403 17.98439906 -5.21591336 13.90642928 -3.75585938 9.83105469 C-3.46432983 9.01658875 -3.17280029 8.2021228 -2.87243652 7.36297607 C-1.95996455 4.89156482 -0.97842087 2.44605218 0 0 Z " fill="#161616" transform="translate(281,12)"/>
<path d="M0 0 C14.85 0 29.7 0 45 0 C45 4.29 45 8.58 45 13 C34.77 13 24.54 13 14 13 C14 16.63 14 20.26 14 24 C23.57 24 33.14 24 43 24 C43 28.29 43 32.58 43 37 C33.43 37 23.86 37 14 37 C14 40.96 14 44.92 14 49 C24.23 49 34.46 49 45 49 C45 53.29 45 57.58 45 62 C30.15 62 15.3 62 0 62 C0 41.54 0 21.08 0 0 Z " fill="#1A1A1A" transform="translate(449,12)"/>
<path d="M0 0 C3.29351492 2.69469402 6.55218947 5.56417767 8.75 9.25 C7.52946141 12.91161578 6.38217696 13.41270474 3.1875 15.4375 C2.36121094 15.96730469 1.53492188 16.49710938 0.68359375 17.04296875 C0.04550781 17.44128906 -0.59257812 17.83960937 -1.25 18.25 C-1.971875 17.486875 -2.69375 16.72375 -3.4375 15.9375 C-8.92407711 10.69477076 -13.58402243 8.85588395 -21.16015625 8.96875 C-26.01667467 9.62233753 -29.3750182 12.28291486 -32.625 15.875 C-36.17270829 21.06011211 -35.7967902 26.10438619 -35.25 32.25 C-33.91752107 36.98601082 -32.0362482 39.62421062 -28.1875 42.6875 C-23.13568133 45.37463759 -18.84764506 46.05554481 -13.19140625 44.7890625 C-7.92373641 43.09623854 -5.43690898 40.73159075 -2.25 36.25 C2.34306496 37.7359916 5.18569245 40.10014682 8.75 43.25 C7.38128119 48.89596509 3.30734526 52.02855997 -1.25 55.25 C-9.90630358 60.14331541 -18.32047675 60.31961119 -27.875 58.1875 C-36.04990477 55.7116717 -42.37079215 50.13829344 -47.25 43.25 C-49.92165111 37.97820183 -50.77327051 33.82042625 -50.6875 27.9375 C-50.67775146 27.18984375 -50.66800293 26.4421875 -50.65795898 25.671875 C-50.37885636 16.93738198 -48.15027542 10.98027366 -42.25 4.4375 C-30.09586823 -6.78169856 -14.2831298 -7.69091604 0 0 Z " fill="#151515" transform="translate(434.25,15.75)"/>
<path d="M0 0 C14.19 0 28.38 0 43 0 C43 4.29 43 8.58 43 13 C33.43 13 23.86 13 14 13 C14 17.62 14 22.24 14 27 C22.91 27 31.82 27 41 27 C41 31.29 41 35.58 41 40 C32.09 40 23.18 40 14 40 C14 47.26 14 54.52 14 62 C9.38 62 4.76 62 0 62 C0 41.54 0 21.08 0 0 Z " fill="#191919" transform="translate(132,12)"/>
<path d="M0 0 C4.62 0 9.24 0 14 0 C14 20.46 14 40.92 14 62 C9.38 62 4.76 62 0 62 C0 41.54 0 21.08 0 0 Z " fill="#161616" transform="translate(181,12)"/>
<path d="M0 0 C4.29 0 8.58 0 13 0 C13 20.13 13 40.26 13 61 C8.71 61 4.42 61 0 61 C0 40.87 0 20.74 0 0 Z " fill="#111111" transform="translate(79,12)"/>
<path d="M0 0 C8.58 0 17.16 0 26 0 C26 3.96 26 7.92 26 12 C17.42 12 8.84 12 0 12 C0 8.04 0 4.08 0 0 Z " fill="#151515" transform="translate(99,42)"/>
<path d="M0 0 C2.3925 -0.0825 4.785 -0.165 7.25 -0.25 C7.99668945 -0.28641602 8.74337891 -0.32283203 9.51269531 -0.36035156 C12.87309974 -0.41638843 14.70087908 -0.21563422 17.44921875 1.765625 C19.06867421 4.09894622 19.56797472 5.19694352 19.5625 8 C19.58441406 8.66 19.60632813 9.32 19.62890625 10 C18.61233428 13.23282516 16.85381058 14.27550484 14 16 C9.27267379 16.52005789 4.77279398 16.1784222 0 16 C0 10.72 0 5.44 0 0 Z " fill="#FBFBFB" transform="translate(514,25)"/>
<path d="M0 0 C2.10412898 2.10412898 2.58158372 3.23084857 3.5078125 5.9921875 C3.77207031 6.77980469 4.03632813 7.56742188 4.30859375 8.37890625 C4.57800781 9.20261719 4.84742188 10.02632812 5.125 10.875 C5.40214844 11.69097656 5.67929687 12.50695313 5.96484375 13.34765625 C6.22652344 14.13785156 6.48820312 14.92804687 6.7578125 15.7421875 C7.11576904 16.82282471 7.11576904 16.82282471 7.48095703 17.92529297 C8 20 8 20 8 24 C3.05 24 -1.9 24 -7 24 C-5.875 16.125 -5.875 16.125 -4.58984375 12.59765625 C-4.18862305 11.48100586 -4.18862305 11.48100586 -3.77929688 10.34179688 C-3.50150391 9.58962891 -3.22371094 8.83746094 -2.9375 8.0625 C-2.65583984 7.28326172 -2.37417969 6.50402344 -2.08398438 5.70117188 C-1.39532294 3.79859875 -0.69850097 1.89898275 0 0 Z " fill="#ECECEC" transform="translate(289,27)"/>
<path d="M0 0 C2.10412898 2.10412898 2.58158372 3.23084857 3.5078125 5.9921875 C3.77207031 6.77980469 4.03632812 7.56742188 4.30859375 8.37890625 C4.57800781 9.20261719 4.84742188 10.02632812 5.125 10.875 C5.40214844 11.69097656 5.67929687 12.50695313 5.96484375 13.34765625 C6.22652344 14.13785156 6.48820312 14.92804687 6.7578125 15.7421875 C7.11576904 16.82282471 7.11576904 16.82282471 7.48095703 17.92529297 C8 20 8 20 8 24 C3.05 24 -1.9 24 -7 24 C-5.40554307 15.73781407 -2.73981931 7.93711014 0 0 Z " fill="#F0F0F0" transform="translate(43,27)"/>
</svg>
